<?xml version="1.0" encoding="UTF-8" standalone="no"?>
<!-- Created with Inkscape (http://www.inkscape.org/) -->

<svg
   width="134.31744mm"
   height="108.01566mm"
   viewBox="0 0 134.31744 108.01566"
   version="1.1"
   id="svg8463"
   xml:space="preserve"
   inkscape:version="1.2.2 (b0a84865, 2022-12-01)"
   sodipodi:docname="nn-1.svg"
   xmlns:inkscape="http://www.inkscape.org/namespaces/inkscape"
   xmlns:sodipodi="http://sodipodi.sourceforge.net/DTD/sodipodi-0.dtd"
   xmlns="http://www.w3.org/2000/svg"
   xmlns:svg="http://www.w3.org/2000/svg"><sodipodi:namedview
     id="namedview8465"
     pagecolor="#ffffff"
     bordercolor="#666666"
     borderopacity="1.0"
     inkscape:showpageshadow="2"
     inkscape:pageopacity="0.0"
     inkscape:pagecheckerboard="0"
     inkscape:deskcolor="#d1d1d1"
     inkscape:document-units="mm"
     showgrid="false"
     inkscape:zoom="0.90433844"
     inkscape:cx="189.64139"
     inkscape:cy="274.23362"
     inkscape:window-width="1440"
     inkscape:window-height="872"
     inkscape:window-x="251"
     inkscape:window-y="720"
     inkscape:window-maximized="1"
     inkscape:current-layer="surface1" /><defs
     id="defs8460"><marker
       style="overflow:visible"
       id="TriangleStart"
       refX="0"
       refY="0"
       orient="auto-start-reverse"
       inkscape:stockid="TriangleStart"
       markerWidth="5.3244081"
       markerHeight="6.155385"
       viewBox="0 0 5.3244081 6.1553851"
       inkscape:isstock="true"
       inkscape:collect="always"
       preserveAspectRatio="xMidYMid"><path
         transform="scale(0.5)"
         style="fill:context-stroke;fill-rule:evenodd;stroke:context-stroke;stroke-width:1pt"
         d="m 5.77,0 -8.65,5 v -10 z"
         id="path135" /></marker><marker
       style="overflow:visible"
       id="Arrow2"
       refX="0"
       refY="0"
       orient="auto-start-reverse"
       inkscape:stockid="Arrow2"
       markerWidth="7.6999998"
       markerHeight="5.5999999"
       viewBox="0 0 7.7 5.6"
       inkscape:isstock="true"
       inkscape:collect="always"
       preserveAspectRatio="xMidYMid"><path
         transform="scale(0.7)"
         d="m -2,-4 11,4 -11,4 c 2,-2.33 2,-5.66 0,-8 z"
         style="fill:context-stroke;fill-rule:evenodd;stroke:none"
         id="arrow2L" /></marker><marker
       id="arrow"
       viewBox="0 -5 10 10"
       markerWidth="7"
       markerHeight="7"
       orient="auto"
       refX="59.599998"><path
         d="m 0,-5 10,5 -10,5"
         style="fill:none;stroke:#505050"
         id="path8701" /></marker><clipPath
       id="clip1"><path
         d="m 23,3.824219 h 674 v 317.632811 h -674 z m 0,0"
         id="path19368" /></clipPath></defs><g
     inkscape:label="Layer 1"
     inkscape:groupmode="layer"
     id="layer1"
     transform="translate(-29.106177,-16.45391)"><g
       transform="matrix(0.34004418,0,0,0.34004418,-146.35662,-59.494325)"
       id="g8699"><path
         class="link"
         d="m 534.14566,247.16637 159.07112,122.30334"
         style="fill:none;stroke:#505050;stroke-width:1.4704;stroke-dasharray:none;stroke-opacity:1;marker-end:url(#Arrow2)"
         id="path8674"
         sodipodi:nodetypes="cc" /><path
         class="link"
         d="m 533.5,316.5 155.791,59.83984"
         style="fill:none;stroke:#505050;stroke-width:1.4704;stroke-dasharray:none;stroke-opacity:1;marker-end:url(#Arrow2)"
         id="path8676"
         sodipodi:nodetypes="cc" /><path
         class="link"
         d="m 533.5,385.5 155.1367,-0.32715"
         style="fill:none;stroke:#505050;stroke-width:1.4704;stroke-dasharray:none;stroke-opacity:1;marker-end:url(#Arrow2)"
         id="path8678"
         sodipodi:nodetypes="cc" /><path
         class="link"
         d="m 533.5,454.5 156.44529,-59.83984"
         style="fill:none;stroke:#505050;stroke-width:1.4704;stroke-dasharray:none;stroke-opacity:1;marker-end:url(#Arrow2)"
         id="path8680"
         sodipodi:nodetypes="cc" /><path
         class="link"
         d="m 533.5,523.5 161.02538,-120.33397"
         style="fill:none;stroke:#505050;stroke-width:1.4704;stroke-dasharray:none;stroke-opacity:1;marker-end:url(#Arrow2)"
         id="path8682"
         sodipodi:nodetypes="cc" /><path
         class="link"
         d="m 713.5,385.5 153.50096,0.6543"
         style="fill:none;stroke:#505050;stroke-width:1.4704;stroke-dasharray:none;stroke-opacity:1;marker-end:url(#Arrow2)"
         id="path8684"
         sodipodi:nodetypes="cc" /><circle
         r="17"
         class="node"
         id="0_0"
         cx="533.5"
         cy="247.5"
         style="fill:#d0d0d0;fill-opacity:1;stroke:#333333" /><circle
         r="17"
         class="node"
         id="0_1"
         cx="533.5"
         cy="316.5"
         style="fill:#d4eeff;fill-opacity:1;stroke:#333333" /><circle
         r="17"
         class="node"
         id="0_2"
         cx="533.5"
         cy="385.5"
         style="fill:#d4eeff;fill-opacity:1;stroke:#333333" /><circle
         r="17"
         class="node"
         id="0_3"
         cx="533.5"
         cy="454.5"
         style="fill:#d4eeff;fill-opacity:1;stroke:#333333" /><circle
         r="17"
         class="node"
         id="0_4"
         cx="533.5"
         cy="523.5"
         style="fill:#d4eeff;fill-opacity:1;stroke:#333333" /><circle
         r="17"
         class="node"
         id="1_0"
         cx="713.5"
         cy="385.5"
         style="fill:#ffd7d7;fill-opacity:1;stroke:#333333" /><circle
         r="17"
         class="node"
         id="2_0"
         cx="893.5"
         cy="385.5"
         style="fill:#ffd986;fill-opacity:1;stroke:#333333" /><text
         xml:space="preserve"
         style="font-size:16.5991px;line-height:1.25;font-family:'Fira Sans';-inkscape-font-specification:'Fira Sans';stroke-width:0.778085"
         x="530.90015"
         y="252.35838"
         id="text13694"><tspan
           sodipodi:role="line"
           id="tspan13692"
           style="font-size:16.5991px;stroke-width:0.778085"
           x="530.90015"
           y="252.35838">1</tspan></text><text
         xml:space="preserve"
         style="font-size:16.5991px;line-height:1.25;font-family:'Fira Sans';-inkscape-font-specification:'Fira Sans';stroke-width:0.778085"
         x="528.03931"
         y="319.21396"
         id="text13698"><tspan
           sodipodi:role="line"
           id="tspan13696"
           style="font-size:16.5991px;stroke-width:0.778085"
           x="528.03931"
           y="319.21396"><tspan
             style="font-style:italic;font-variant:normal;font-weight:normal;font-stretch:normal;font-family:'Fira Sans';-inkscape-font-specification:'Fira Sans Italic'"
             id="tspan13702">x</tspan><tspan
             style="font-size:65%;baseline-shift:sub"
             id="tspan13708">1</tspan></tspan></text><text
         xml:space="preserve"
         style="font-size:14.5243px;line-height:1.25;font-family:'Fira Sans';-inkscape-font-specification:'Fira Sans';stroke-width:0.778085"
         x="536.48212"
         y="324.43329"
         id="text13706"><tspan
           sodipodi:role="line"
           id="tspan13704"
           style="stroke-width:0.778085"
           x="536.48212"
           y="324.43329"></tspan></text><text
         xml:space="preserve"
         style="font-size:16.5991px;line-height:1.25;font-family:'Fira Sans';-inkscape-font-specification:'Fira Sans';stroke-width:0.778085"
         x="527.38116"
         y="388.21396"
         id="text13716"><tspan
           sodipodi:role="line"
           id="tspan13714"
           style="font-style:italic;font-variant:normal;font-weight:normal;font-stretch:normal;font-size:16.5991px;font-family:'Fira Sans';-inkscape-font-specification:'Fira Sans Italic';stroke-width:0.778085"
           x="527.38116"
           y="388.21396">x<tspan
   style="font-style:normal;font-size:65%;baseline-shift:sub"
   id="tspan13718">2</tspan></tspan></text><text
         xml:space="preserve"
         style="font-size:16.5991px;line-height:1.25;font-family:'Fira Sans';-inkscape-font-specification:'Fira Sans';stroke-width:0.778085"
         x="527.38654"
         y="457.14923"
         id="text13725"><tspan
           sodipodi:role="line"
           id="tspan13723"
           style="font-style:italic;font-variant:normal;font-weight:normal;font-stretch:normal;font-size:16.5991px;font-family:'Fira Sans';-inkscape-font-specification:'Fira Sans Italic';stroke-width:0.778085"
           x="527.38654"
           y="457.14923">x<tspan
   style="font-style:normal;font-variant:normal;font-weight:normal;font-stretch:normal;font-size:65%;font-family:'Fira Sans';-inkscape-font-specification:'Fira Sans';baseline-shift:sub"
   id="tspan13727">3</tspan></tspan></text><text
         xml:space="preserve"
         style="font-size:16.5991px;line-height:1.25;font-family:'Fira Sans';-inkscape-font-specification:'Fira Sans';stroke-width:0.778085"
         x="527.07367"
         y="526.21393"
         id="text13733"><tspan
           sodipodi:role="line"
           id="tspan13731"
           style="font-style:italic;font-variant:normal;font-weight:normal;font-stretch:normal;font-size:16.5991px;font-family:'Fira Sans';-inkscape-font-specification:'Fira Sans Italic';stroke-width:0.778085"
           x="527.07367"
           y="526.21393">x<tspan
   style="font-style:normal;font-size:65%;baseline-shift:sub"
   id="tspan13735">4</tspan></tspan></text><text
         xml:space="preserve"
         style="font-size:14.5243px;line-height:1.25;font-family:'Fira Sans';-inkscape-font-specification:'Fira Sans';stroke-width:0.778085"
         x="487.85355"
         y="577.10236"
         id="text13739"><tspan
           sodipodi:role="line"
           id="tspan13737"
           style="stroke-width:0.778085"
           x="487.85355"
           y="577.10236" /></text><text
         xml:space="preserve"
         style="font-size:14.5243px;line-height:1.25;font-family:'Fira Sans';-inkscape-font-specification:'Fira Sans';stroke-width:0.778085"
         x="601.32806"
         y="293.63773"
         id="text13743"><tspan
           sodipodi:role="line"
           id="tspan13741"
           style="stroke-width:0.778085"
           x="601.32806"
           y="293.63773"><tspan
             style="font-style:italic"
             id="tspan13745">β</tspan><tspan
             style="font-size:65%;baseline-shift:sub"
             id="tspan13747">0</tspan></tspan></text><text
         xml:space="preserve"
         style="font-size:14.5243px;line-height:1.25;font-family:'Fira Sans';-inkscape-font-specification:'Fira Sans';stroke-width:0.778085"
         x="601.32806"
         y="335.2569"
         id="text13755"><tspan
           sodipodi:role="line"
           id="tspan13753"
           style="stroke-width:0.778085"
           x="601.32806"
           y="335.2569"><tspan
             style="font-style:italic"
             id="tspan13749">β</tspan><tspan
             style="font-size:65%;baseline-shift:sub"
             id="tspan13759">1</tspan></tspan></text><text
         xml:space="preserve"
         style="font-size:14.5243px;line-height:1.25;font-family:'Fira Sans';-inkscape-font-specification:'Fira Sans';stroke-width:0.778085"
         x="601.32806"
         y="378.82965"
         id="text13767"><tspan
           sodipodi:role="line"
           id="tspan13765"
           style="stroke-width:0.778085"
           x="601.32806"
           y="378.82965"><tspan
             style="font-style:italic"
             id="tspan13761">β</tspan><tspan
             style="font-size:65%;baseline-shift:sub"
             id="tspan13771">2</tspan></tspan></text><text
         xml:space="preserve"
         style="font-size:14.5243px;line-height:1.25;font-family:'Fira Sans';-inkscape-font-specification:'Fira Sans';stroke-width:0.778085"
         x="601.32806"
         y="419.29004"
         id="text13779"><tspan
           sodipodi:role="line"
           id="tspan13777"
           style="stroke-width:0.778085"
           x="601.32806"
           y="419.29004"><tspan
             style="font-style:italic"
             id="tspan13773">β</tspan><tspan
             style="font-size:65%;baseline-shift:sub"
             id="tspan13775">3</tspan></tspan></text><text
         xml:space="preserve"
         style="font-size:14.5243px;line-height:1.25;font-family:'Fira Sans';-inkscape-font-specification:'Fira Sans';stroke-width:0.778085"
         x="601.32806"
         y="456.63843"
         id="text13787"><tspan
           sodipodi:role="line"
           id="tspan13785"
           style="stroke-width:0.778085"
           x="601.32806"
           y="456.63843"><tspan
             style="font-style:italic"
             id="tspan13781">β</tspan><tspan
             style="font-size:65%;baseline-shift:sub"
             id="tspan13783">4</tspan></tspan></text><text
         xml:space="preserve"
         style="font-size:14.5243px;line-height:1.25;font-family:'Fira Sans';-inkscape-font-specification:'Fira Sans';stroke-width:0.778085"
         x="729.11871"
         y="234.67709"
         id="text13791"><tspan
           sodipodi:role="line"
           style="stroke-width:0.778085"
           x="729.11871"
           y="234.67709"
           id="tspan13793">Activation function</tspan><tspan
           sodipodi:role="line"
           style="stroke-width:0.778085"
           x="729.11871"
           y="252.83247"
           id="tspan13797"><tspan
   style="font-style:italic;font-variant:normal;font-weight:normal;font-stretch:normal;font-family:'Fira Sans';-inkscape-font-specification:'Fira Sans Italic'"
   id="tspan13799">f</tspan>(<tspan
   style="font-style:italic;font-weight:bold"
   id="tspan13803">X</tspan><tspan
   style="font-size:65%;baseline-shift:super"
   id="tspan13805">T</tspan><tspan
   style="font-style:normal;font-weight:bold"
   id="tspan13807">β</tspan>)</tspan></text><path
         id="rect13865"
         style="fill:none;fill-rule:evenodd;stroke:#747474;stroke-width:1.47039;marker-start:url(#TriangleStart);marker-end:url(#TriangleStart)"
         d="m 839.48091,350.33066 h -107.33859 v -79.37009"
         sodipodi:nodetypes="ccc" /><text
         xml:space="preserve"
         style="font-size:14.5243px;line-height:1.25;font-family:'Fira Sans';-inkscape-font-specification:'Fira Sans';stroke-width:0.778085"
         x="838.72504"
         y="341.25983"
         id="text13984"><tspan
           sodipodi:role="line"
           id="tspan13982"
           style="stroke-width:0.778085"
           x="838.72504"
           y="341.25983"><tspan
             style="font-style:italic;font-weight:bold"
             id="tspan13986">X</tspan><tspan
             style="font-size:65%;baseline-shift:super"
             id="tspan13988">T</tspan><tspan
             style="font-weight:bold"
             id="tspan13990">β</tspan></tspan></text><g
         id="surface1"
         transform="matrix(1.0374469,0,0,1.0374469,340.1001,467.64545)"><g
           clip-path="url(#clip1)"
           clip-rule="nonzero"
           id="g19445" /><path
           style="fill:none;stroke:#296bc8;stroke-width:2.26395;stroke-linecap:butt;stroke-linejoin:miter;stroke-miterlimit:10;stroke-dasharray:none;stroke-opacity:1"
           d="m 376.46066,-112.7333 h 0.22348 l 0.22274,-0.002 h 0.22348 l 0.22346,-0.002 h 0.22202 l 0.2242,-9.1e-4 h 0.22348 l 0.22347,-0.002 h 0.22275 l 0.22347,-0.002 h 0.22348 l 0.22346,-0.002 0.22275,-9.1e-4 h 0.22347 l 0.44768,-0.005 h 0.22201 l 0.67116,-0.005 h 0.22201 l 0.67115,-0.005 0.22201,-0.002 0.44769,-0.005 0.22201,-9.1e-4 0.67116,-0.006 0.22273,-9.1e-4 0.22348,-0.002 0.22347,-0.005 0.22347,-9.1e-4 0.22274,-0.002 0.22348,-0.005 0.44695,-0.004 0.22275,-0.005 0.22347,-9.1e-4 0.44768,-0.008 0.22201,-0.002 0.67115,-0.0124 0.22202,-0.003 0.2242,-0.002 0.22348,-0.005 0.22201,-0.003 0.67115,-0.0124 0.22201,-0.005 0.2242,-0.005 0.22348,-0.005 0.22348,-0.004 0.22273,-0.006 0.67043,-0.0169 0.22274,-0.006 0.44695,-0.0113 0.22348,-0.008 0.22273,-0.005 0.44696,-0.0158 0.22421,-0.006 0.222,-0.007 0.22347,-0.0102 0.44768,-0.0158 0.22202,-0.0102 0.2242,-0.008 0.22347,-0.0102 0.22202,-0.009 0.2242,-0.0101 0.22348,-0.0124 0.22347,-0.009 0.222,-0.0124 0.22422,-0.009 0.22347,-0.0124 0.22347,-0.0135 0.22274,-0.0124 0.67043,-0.0405 0.22274,-0.0146 0.22348,-0.0135 0.44767,-0.0315 0.22201,-0.0158 0.67116,-0.053 0.22201,-0.018 0.44768,-0.0383 0.22201,-0.0203 0.67115,-0.0642 0.22201,-0.0237 0.44768,-0.0473 0.22348,-0.0258 0.22274,-0.0259 0.44695,-0.0552 0.22347,-0.0293 0.22275,-0.0293 0.22347,-0.0293 0.22348,-0.0316 0.22347,-0.0337 0.22274,-0.0327 0.22348,-0.0338 0.22347,-0.036 0.22421,-0.0372 0.22201,-0.0372 0.22346,-0.0395 0.44769,-0.0822 0.22201,-0.0439 0.2242,-0.0428 0.22348,-0.0451 0.22201,-0.0473 0.44769,-0.098 0.22346,-0.053 0.22202,-0.0541 0.44767,-0.10926 0.22348,-0.0597 0.22274,-0.0609 0.22348,-0.0609 0.44694,-0.12952 0.22275,-0.0687 0.22347,-0.0687 0.22348,-0.0732 0.2242,-0.0744 0.22201,-0.0766 0.22347,-0.0788 0.22349,-0.0811 0.2242,-0.0844 0.22201,-0.0867 0.22347,-0.0879 0.22422,-0.0912 0.22199,-0.0935 0.22348,-0.0991 0.2242,-0.10024 0.22348,-0.10136 0.22201,-0.107 0.22421,-0.10813 0.22347,-0.11376 0.22348,-0.11601 0.22274,-0.11826 0.22348,-0.12165 0.44694,-0.25567 0.22274,-0.13403 0.22348,-0.13741 0.22348,-0.14191 0.22347,-0.1453 0.22274,-0.14868 0.22348,-0.1543 0.22346,-0.15655 0.22422,-0.16333 0.222,-0.16781 0.22348,-0.17008 0.2242,-0.17571 0.22348,-0.18021 0.22201,-0.18697 0.22348,-0.19146 0.22421,-0.19598 0.222,-0.20049 0.22347,-0.20724 0.22422,-0.21175 0.22346,-0.21851 0.22201,-0.22188 0.22421,-0.22976 0.22347,-0.23653 0.22348,-0.2399 0.22274,-0.24555 0.22348,-0.25341 0.22347,-0.26018 0.22347,-0.26469 0.22275,-0.27143 0.22347,-0.27933 0.22347,-0.28496 0.22349,-0.29396 0.22273,-0.29849 0.22348,-0.30635 0.22347,-0.31086 0.22421,-0.321 0.22201,-0.3255 0.22347,-0.33452 0.22421,-0.3424 0.222,-0.34803 0.22348,-0.35817 0.22421,-0.36154 0.22347,-0.3717 0.22201,-0.3773 0.22421,-0.3852 0.22348,-0.39534 0.22347,-0.40097 0.222,-0.40773 0.22422,-0.41672 0.22347,-0.42237 0.22347,-0.43251 0.22274,-0.43701 0.22348,-0.44603 0.22348,-0.45277 0.22347,-0.46179 0.22274,-0.46743 0.22348,-0.47642 0.22346,-0.48319 0.22421,-0.4877 0.22201,-0.49783 0.22347,-0.50346 0.22348,-0.51135 0.22274,-0.51472 0.22348,-0.52261 0.22348,-0.53162 0.2242,-0.535 0.22201,-0.54063 0.22347,-0.54852 0.22421,-0.55189 0.22347,-0.55866 0.22201,-0.56427 0.22421,-0.56879 0.22348,-0.57443 0.22347,-0.57554 0.22274,-0.5823 0.22348,-0.58569 0.22347,-0.59019 0.22347,-0.59356 0.22275,-0.59582 0.22347,-0.5992 0.22347,-0.60258 0.22348,-0.60371 0.22274,-0.60708 0.22347,-0.60595 0.22348,-0.60934 0.22421,-0.61159 0.222,-0.61159 0.44769,-1.21867 0.222,-0.60933 0.44769,-1.22318 0.22347,-0.60934 0.22201,-0.6082 0.44768,-1.2108 0.22347,-0.60258 0.22201,-0.59694 0.22421,-0.59808 0.22348,-0.59131 0.22347,-0.59019 0.22274,-0.58568 0.22348,-0.58231 0.22348,-0.57779 0.22346,-0.57218 0.22276,-0.57104 0.22346,-0.56203 0.22347,-0.55639 0.22348,-0.55415 0.22274,-0.55077 0.22347,-0.5395 0.22349,-0.53388 0.22273,-0.53161 0.22348,-0.52261 0.22347,-0.51698 0.22421,-0.51134 0.222,-0.50121 0.22348,-0.49783 0.2242,-0.4877 0.22348,-0.48319 0.22201,-0.47643 0.22421,-0.4663 0.22347,-0.46179 0.22348,-0.45164 0.222,-0.44491 0.22422,-0.44038 0.22346,-0.43025 0.22348,-0.42687 0.22274,-0.41561 0.22348,-0.40885 0.22347,-0.39872 0.22348,-0.39534 0.22274,-0.38294 0.22348,-0.37956 0.22347,-0.37056 0.22421,-0.36718 0.222,-0.35254 0.22348,-0.35141 0.22421,-0.3379 0.222,-0.33677 0.22348,-0.32437 0.22348,-0.31988 0.2242,-0.31537 0.22201,-0.30635 0.22347,-0.29735 0.22422,-0.29509 0.22346,-0.28046 0.22201,-0.28158 0.22421,-0.27369 0.22347,-0.26468 0.22348,-0.25793 0.22274,-0.25004 0.22348,-0.25117 0.22347,-0.23652 0.22347,-0.23766 0.22275,-0.22639 0.22347,-0.22751 0.22347,-0.21626 0.22349,-0.21399 0.22273,-0.20725 0.44696,-0.39308 0.22273,-0.18922 0.22348,-0.18809 0.22347,-0.18135 0.22421,-0.17457 0.222,-0.1712 0.22348,-0.1667 0.22421,-0.16218 0.22347,-0.15881 0.22201,-0.15318 0.22348,-0.14755 0.22421,-0.14529 0.22347,-0.14193 0.222,-0.1374 0.22422,-0.13404 0.22347,-0.12951 0.22347,-0.12616 0.22274,-0.12389 0.22348,-0.11827 0.22347,-0.116 0.22348,-0.11151 0.22274,-0.10812 0.22347,-0.10813 0.22347,-0.10249 0.22421,-0.10024 0.22201,-0.0957 0.22348,-0.0946 0.22347,-0.0924 0.22274,-0.0867 0.22348,-0.0867 0.22347,-0.0844 0.22421,-0.0822 0.22201,-0.0766 0.22347,-0.0766 0.22421,-0.0754 0.22347,-0.0721 0.22202,-0.0687 0.2242,-0.0698 0.22348,-0.0665 0.22347,-0.0631 0.22274,-0.0609 0.22348,-0.0608 0.22347,-0.0586 0.22347,-0.0574 0.22274,-0.053 0.22347,-0.0552 0.22348,-0.0496 0.22348,-0.0507 0.22274,-0.0473 0.22347,-0.0473 0.22348,-0.0451 0.22274,-0.0451 0.44695,-0.0867 0.2242,-0.0372 0.22201,-0.0417 0.44696,-0.0744 0.2242,-0.036 0.22201,-0.0327 0.44768,-0.0676 0.22347,-0.0293 0.22202,-0.0337 0.2242,-0.0293 0.44695,-0.0552 0.22274,-0.0248 0.22348,-0.0281 0.22348,-0.0248 0.22346,-0.0237 0.22275,-0.0237 0.22347,-0.0237 0.22348,-0.0214 0.22273,-0.0225 0.22348,-0.0214 0.44696,-0.0394 0.22273,-0.018 0.22348,-0.0191 0.44768,-0.0349 0.222,-0.0158 0.44768,-0.0316 0.22348,-0.0179 0.22201,-0.0135 0.22421,-0.0158 0.22347,-0.0134 0.22348,-0.0102 0.22201,-0.0158 0.67116,-0.036 0.22273,-0.0113 0.22348,-0.0113 0.44695,-0.0203 0.22274,-0.0112 0.22348,-0.008 0.22347,-0.0101 0.22274,-0.0102 0.44695,-0.0191 0.22347,-0.005 0.22274,-0.0102 0.22348,-0.009 0.44768,-0.0124 0.22201,-0.009 0.67115,-0.0179 0.22201,-0.008 0.22421,-0.005 0.22347,-0.008 0.22348,-0.005 0.22274,-0.004 0.44695,-0.0124 0.22348,-0.004 0.22274,-0.006 0.44695,-0.008 0.22273,-0.005 0.67043,-0.0113 0.22275,-0.005 0.22347,-0.005 0.44768,-0.004 0.222,-0.006 0.44769,-0.004 0.22347,-0.005 0.22201,-0.004 0.22348,-0.002 0.22421,-0.004 0.22347,-0.002 0.222,-0.002 0.22421,-0.002 0.22347,-0.004 0.22348,-0.002 0.22274,-0.002 0.22347,-0.004 0.44696,-0.005 0.22274,-9e-4 0.22347,-0.002 h 0.22347 l 0.22275,-0.002 0.22347,-0.004 h 0.22348 l 0.22347,-0.002 0.22275,-0.002 h 0.22347 l 0.22347,-0.002 h 0.22421 l 0.22201,-0.004 0.22347,-0.002 h 0.22421 l 0.22347,-0.002 0.22202,-9.1e-4 h 0.2242 l 0.44695,-0.005 0.22201,-0.002 h 0.67115 l 0.22274,-9.1e-4 h 0.22348 l 0.22348,-0.002 0.22273,-0.002 h 0.44696"
           id="path19443" /><circle
           style="fill:#000000;fill-opacity:1;fill-rule:evenodd;stroke:none;stroke-width:4.25197;stroke-dasharray:none;stroke-opacity:1"
           id="path20061"
           cx="443.15585"
           cy="-176.56679"
           r="4.5224414" /><circle
           style="fill:#ffffff;fill-opacity:1;fill-rule:evenodd;stroke:#4c4c4c;stroke-width:3.11811;stroke-dasharray:none;stroke-opacity:1"
           id="circle20063"
           cx="419.15585"
           cy="-122.56679"
           r="4.5224414" /></g></g></g></svg>
